<?xml version="1.0" encoding="UTF-8" standalone="no"?>
<!-- Created with Inkscape (http://www.inkscape.org/) -->

<svg
   xmlns:dc="http://purl.org/dc/elements/1.1/"
   xmlns:cc="http://creativecommons.org/ns#"
   xmlns:rdf="http://www.w3.org/1999/02/22-rdf-syntax-ns#"
   xmlns:svg="http://www.w3.org/2000/svg"
   xmlns="http://www.w3.org/2000/svg"
   xmlns:xlink="http://www.w3.org/1999/xlink"
   xmlns:sodipodi="http://sodipodi.sourceforge.net/DTD/sodipodi-0.dtd"
   xmlns:inkscape="http://www.inkscape.org/namespaces/inkscape"
   version="1.0"
   width="88.650002"
   height="88.650002"
   id="svg2"
   sodipodi:version="0.32"
   inkscape:version="0.48.4 r9939"
   sodipodi:docname="manasource-logo-bg.svg"
   inkscape:output_extension="org.inkscape.output.svg.inkscape"
   inkscape:export-filename="/home/bjorn/manasource-google-logo.png"
   inkscape:export-xdpi="360.4061"
   inkscape:export-ydpi="360.4061">
  <metadata
     id="metadata9">
    <rdf:RDF>
      <cc:Work
         rdf:about="">
        <dc:format>image/svg+xml</dc:format>
        <dc:type
           rdf:resource="http://purl.org/dc/dcmitype/StillImage" />
        <dc:title></dc:title>
      </cc:Work>
    </rdf:RDF>
  </metadata>
  <sodipodi:namedview
     inkscape:window-height="947"
     inkscape:window-width="1270"
     inkscape:pageshadow="2"
     inkscape:pageopacity="0.0"
     guidetolerance="10.0"
     gridtolerance="10.0"
     objecttolerance="10.0"
     borderopacity="1.0"
     bordercolor="#666666"
     pagecolor="#ffffff"
     id="base"
     showgrid="false"
     inkscape:zoom="2.8284271"
     inkscape:cx="60.559437"
     inkscape:cy="58.122353"
     inkscape:window-x="524"
     inkscape:window-y="13"
     inkscape:current-layer="svg2"
     inkscape:window-maximized="0" />
  <defs
     id="defs4">
    <linearGradient
       id="linearGradient3785">
      <stop
         style="stop-color:#ff6600;stop-opacity:1;"
         offset="0"
         id="stop3787" />
      <stop
         style="stop-color:#ffffff;stop-opacity:0.50406504;"
         offset="1"
         id="stop3789" />
    </linearGradient>
    <linearGradient
       id="linearGradient3496">
      <stop
         style="stop-color:#ffffff;stop-opacity:1;"
         offset="0"
         id="stop3498" />
      <stop
         style="stop-color:#1d2dfa;stop-opacity:0;"
         offset="1"
         id="stop3500" />
    </linearGradient>
    <inkscape:perspective
       sodipodi:type="inkscape:persp3d"
       inkscape:vp_x="0 : 50 : 1"
       inkscape:vp_y="0 : 1000 : 0"
       inkscape:vp_z="300 : 50 : 1"
       inkscape:persp3d-origin="150 : 33.333333 : 1"
       id="perspective11" />
    <clipPath
       clipPathUnits="userSpaceOnUse"
       id="clipPath2386">
      <rect
         style="opacity:0.8;fill:#000000;fill-opacity:1;fill-rule:evenodd;stroke:#000000;stroke-width:0.5;stroke-miterlimit:4;stroke-dasharray:none;stroke-dashoffset:0;stroke-opacity:1"
         id="rect2388"
         width="62.61343"
         height="26.678766"
         x="124.41016"
         y="66.515427" />
    </clipPath>
    <clipPath
       clipPathUnits="userSpaceOnUse"
       id="clipPath3388">
      <rect
         style="opacity:0.8;fill:#ffffff;fill-opacity:1;fill-rule:evenodd;stroke:#000000;stroke-width:0.5;stroke-miterlimit:4;stroke-dasharray:none;stroke-dashoffset:0;stroke-opacity:1"
         id="rect3390"
         width="162.63455"
         height="49.497475"
         x="564.81299"
         y="219.43652"
         ry="7"
         rx="7" />
    </clipPath>
    <clipPath
       clipPathUnits="userSpaceOnUse"
       id="clipPath3492">
      <rect
         y="405"
         x="51.928932"
         height="78"
         width="671"
         id="rect3494"
         style="opacity:1;fill:#fa1d24;fill-opacity:1;fill-rule:evenodd;stroke:#919191;stroke-width:1;stroke-miterlimit:4;stroke-dasharray:none;stroke-dashoffset:0;stroke-opacity:1" />
    </clipPath>
    <radialGradient
       inkscape:collect="always"
       xlink:href="#linearGradient3496"
       id="radialGradient3502"
       cx="348.73093"
       cy="462.78244"
       fx="348.73093"
       fy="462.78244"
       r="30.905592"
       gradientTransform="matrix(2.4798313,-0.1095192,7.3709675e-2,1.6690008,-546.41268,-274.89586)"
       gradientUnits="userSpaceOnUse" />
    <filter
       inkscape:collect="always"
       id="filter3781">
      <feGaussianBlur
         inkscape:collect="always"
         stdDeviation="1.7392372"
         id="feGaussianBlur3783" />
    </filter>
    <radialGradient
       inkscape:collect="always"
       xlink:href="#linearGradient3785"
       id="radialGradient3791"
       cx="47.376156"
       cy="45.131023"
       fx="47.376156"
       fy="45.131023"
       r="42.635283"
       gradientTransform="matrix(-2.1801688,-2.2712589,2.2093457,-2.1207787,50.954144,248.47933)"
       gradientUnits="userSpaceOnUse" />
    <radialGradient
       inkscape:collect="always"
       xlink:href="#linearGradient3785"
       id="radialGradient3793"
       gradientUnits="userSpaceOnUse"
       gradientTransform="matrix(-2.1801688,-2.2712589,2.2093457,-2.1207787,50.954144,248.47933)"
       cx="47.376156"
       cy="45.131023"
       fx="47.376156"
       fy="45.131023"
       r="42.635283" />
    <radialGradient
       inkscape:collect="always"
       xlink:href="#linearGradient3785"
       id="radialGradient3795"
       gradientUnits="userSpaceOnUse"
       gradientTransform="matrix(-2.1801688,-2.2712589,2.2093457,-2.1207787,50.954144,248.47933)"
       cx="47.376156"
       cy="45.131023"
       fx="47.376156"
       fy="45.131023"
       r="42.635283" />
  </defs>
  <rect
     style="fill:#ffffff;fill-opacity:1;stroke:none"
     id="rect3797"
     width="88.034798"
     height="88.388336"
     x="0.35355335"
     y="0.2616539" />
  <g
     id="g2398"
     transform="matrix(0.8179796,0,0,0.8179796,7.38961,7.6616869)"
     style="opacity:0.42857145;fill:#000000;fill-opacity:1;filter:url(#filter3781)">
    <path
       sodipodi:nodetypes="ccccscccssccsccsssccccsssssscccscsscsccsssccccsccccscccscccccccsssccccscsccccsccc"
       style="font-size:66.33274078px;font-style:normal;font-variant:normal;font-weight:normal;font-stretch:normal;text-align:start;line-height:125%;writing-mode:lr-tb;text-anchor:start;fill:#000000;fill-opacity:1;stroke:none;font-family:Beroga;-inkscape-font-specification:Beroga"
       id="path2400"
       d="m 39.929003,26.172935 c 1.690291,3.9e-5 3.343855,0.183768 4.960702,0.551189 1.653539,0.367496 3.068255,1.065669 4.244155,2.094519 l 0.05512,0 c 0.293935,0.257256 0.587902,0.385867 0.881902,0.385832 0.367427,3.5e-5 0.790004,-0.146949 1.267735,-0.440951 0.477663,-0.330679 1.120716,-0.679764 1.929162,-1.047259 0.808373,-0.404169 1.837258,-0.753256 3.086658,-1.047259 1.286068,-0.330676 2.92126,-0.496032 4.905582,-0.496071 2.351694,3.9e-5 4.354346,0.294006 6.007966,0.881903 1.65351,0.587971 2.97636,1.414754 3.96856,2.48035 1.02883,1.065666 1.76375,2.388518 2.20475,3.968562 0.47764,1.543357 0.71649,3.270415 0.71655,5.181176 -6e-5,1.433115 -0.1103,2.976443 -0.33071,4.629988 l -2.20476,15.874243 c -0.0368,0.293973 -0.18378,0.643059 -0.44095,1.04726 -0.25728,0.367462 -0.55125,0.734921 -0.8819,1.102378 -0.33077,0.367462 -0.67986,0.679801 -1.04726,0.937021 -0.33077,0.257223 -0.60636,0.385834 -0.82679,0.385833 l -7.93712,0 c -0.147027,1e-6 -0.220519,-0.07349 -0.220475,-0.220476 l 0,-0.165357 c 0.110194,-0.845154 0.257178,-1.874039 0.44095,-3.086659 0.183687,-1.249355 0.367416,-2.572207 0.551189,-3.96856 0.183686,-1.433081 0.385788,-2.884544 0.606308,-4.354394 0.220431,-1.506568 0.404161,-2.939658 0.55119,-4.299274 0.146938,-1.396326 0.275548,-2.682433 0.385832,-3.858324 0.110192,-1.175846 0.165311,-2.149613 0.165356,-2.921301 -4.5e-5,-1.616795 -0.165401,-2.939647 -0.496071,-3.968561 -0.294012,-1.065603 -0.679843,-1.892386 -1.157495,-2.480351 -0.477741,-0.624649 -1.010557,-1.047226 -1.598449,-1.267734 -0.551231,-0.25719 -1.084046,-0.3858 -1.598448,-0.385833 -0.698213,3.3e-5 -1.30452,0.128643 -1.818924,0.385833 -0.514482,0.220508 -0.826821,0.440982 -0.937022,0.661426 -0.367495,0.661458 -0.698209,1.414749 -0.99214,2.259876 -0.294004,0.845184 -0.569598,1.745458 -0.826783,2.700825 -0.220511,0.95542 -0.422614,1.910813 -0.606308,2.866183 -0.183765,0.955417 -0.330748,1.874065 -0.440951,2.755946 l -2.204756,15.874243 c -0.03678,0.293973 -0.183762,0.643059 -0.440951,1.04726 -0.257254,0.367462 -0.551222,0.734921 -0.881903,1.102378 -0.330745,0.367462 -0.67983,0.679801 -1.047259,0.937021 -0.330744,0.257223 -0.606338,0.385834 -0.826783,0.385833 l -7.937123,0 c -0.147005,1e-6 -0.220496,-0.09186 -0.220475,-0.275594 l 0,-0.110239 c 0.110217,-0.845154 0.2572,-1.874039 0.440951,-3.086659 0.183708,-1.249355 0.367437,-2.572207 0.551188,-3.96856 0.220454,-1.433081 0.422556,-2.884544 0.606309,-4.354394 0.220453,-1.506568 0.404182,-2.939658 0.551189,-4.299274 0.183706,-1.396326 0.312317,-2.682433 0.385832,-3.858324 0.110214,-1.175846 0.165333,-2.149613 0.165356,-2.921301 -2.3e-5,-1.616795 -0.165379,-2.939647 -0.496068,-3.968561 -0.293992,-1.065603 -0.679823,-1.892386 -1.157498,-2.480351 -0.477719,-0.624649 -1.010535,-1.047226 -1.598448,-1.267734 -0.55121,-0.25719 -1.084025,-0.3858 -1.598448,-0.385833 -0.661446,3.3e-5 -1.24938,0.128643 -1.763806,0.385833 -0.514459,0.220508 -0.845172,0.440982 -0.992139,0.661426 -0.367476,0.661458 -0.716561,1.414749 -1.04726,2.259876 -0.293983,0.845184 -0.569577,1.745458 -0.826784,2.700825 -0.220489,0.95542 -0.422592,1.910813 -0.606307,2.866183 -0.146997,0.955417 -0.275608,1.874065 -0.385832,2.755946 l -2.149637,15.874243 c -0.03676,0.293973 -0.202114,0.643059 -0.496071,1.04726 -0.257232,0.367462 -0.551199,0.734921 -0.881903,1.102378 -0.330723,0.367462 -0.679809,0.679801 -1.047259,0.937021 -0.330722,0.257223 -0.606316,0.385834 -0.826783,0.385833 l -7.882003,0 c -0.18373,1e-6 -0.275594,-0.12861 -0.275595,-0.385833 l 4.354394,-31.748487 c 0.03674,-0.293934 0.183725,-0.64302 0.440951,-1.047259 0.257217,-0.404171 0.551184,-0.77163 0.881903,-1.102378 0.330707,-0.367424 0.66142,-0.679764 0.99214,-0.937022 0.367452,-0.257185 0.661419,-0.385795 0.881902,-0.385832 l 1.102379,0 3.582728,0 c 0.69816,3.7e-5 1.230975,0.05515 1.598448,0.165356 0.367445,0.07353 0.698159,0.110275 0.99214,0.110239 0.220461,3.6e-5 0.404191,-0.03671 0.551189,-0.110239 2.131247,-0.698135 4.427866,-1.04722 6.889863,-1.047259 l 0.05512,0"
       inkscape:connector-curvature="0" />
    <path
       id="path2402"
       d="m 45.769585,0.01854572 c -0.718878,0.022823 -1.431675,0.05973901 -2.125,0.12500001 C 19.725973,2.3949597 -7.424324,33.855034 5.207085,62.018546 c 14.423041,32.15821 54.396875,33.2957 75.21875,13.5625 18.34052,-17.381584 -4.71502,-29.298991 -16.25,-4.84375 -10.034403,21.27386 -52.029984,18.77354 -54.375,-15.5 -2.981356,-43.57393 41.15927,-64.1183543 67.75,-42.9375 C 69.921275,4.0849567 56.55275,-0.32380227 45.769585,0.01854572 z M 80.175835,59.893546 c 1.52835,-0.09803 2.79799,0.369942 3.53125,1.4375 1.67602,2.440133 -0.11395,7.13247 -4,10.46875 -3.88606,3.33629 -8.38647,4.06514 -10.0625,1.625 -1.67602,-2.44013 0.11394,-7.132466 4,-10.46875 2.1859,-1.87666 4.56623,-2.93646 6.53125,-3.0625 z"
       style="fill:#000000;fill-opacity:1;fill-rule:evenodd;stroke:none;stroke-width:8;marker:none;visibility:visible;display:inline;overflow:visible;enable-background:accumulate"
       inkscape:connector-curvature="0" />
  </g>
  <g
     id="g2394"
     style="fill:url(#radialGradient3791);fill-opacity:1"
     transform="matrix(0.8179796,0,0,0.8179796,6.0688044,6.7836488)">
    <path
       sodipodi:nodetypes="ccccscccssccsccsssccccsssssscccscsscsccsssccccsccccscccscccccccsssccccscsccccsccc"
       style="font-size:66.33274078px;font-style:normal;font-variant:normal;font-weight:normal;font-stretch:normal;text-align:start;line-height:125%;writing-mode:lr-tb;text-anchor:start;fill:url(#radialGradient3793);fill-opacity:1;stroke:none;font-family:Beroga;-inkscape-font-specification:Beroga"
       id="text2395"
       d="m 39.929003,26.172935 c 1.690291,3.9e-5 3.343855,0.183768 4.960702,0.551189 1.653539,0.367496 3.068255,1.065669 4.244155,2.094519 l 0.05512,0 c 0.293935,0.257256 0.587902,0.385867 0.881902,0.385832 0.367427,3.5e-5 0.790004,-0.146949 1.267735,-0.440951 0.477663,-0.330679 1.120716,-0.679764 1.929162,-1.047259 0.808373,-0.404169 1.837258,-0.753256 3.086658,-1.047259 1.286068,-0.330676 2.92126,-0.496032 4.905582,-0.496071 2.351694,3.9e-5 4.354346,0.294006 6.007966,0.881903 1.65351,0.587971 2.97636,1.414754 3.96856,2.48035 1.02883,1.065666 1.76375,2.388518 2.20475,3.968562 0.47764,1.543357 0.71649,3.270415 0.71655,5.181176 -6e-5,1.433115 -0.1103,2.976443 -0.33071,4.629988 l -2.20476,15.874243 c -0.0368,0.293973 -0.18378,0.643059 -0.44095,1.04726 -0.25728,0.367462 -0.55125,0.734921 -0.8819,1.102378 -0.33077,0.367462 -0.67986,0.679801 -1.04726,0.937021 -0.33077,0.257223 -0.60636,0.385834 -0.82679,0.385833 l -7.93712,0 c -0.147027,1e-6 -0.220519,-0.07349 -0.220475,-0.220476 l 0,-0.165357 c 0.110194,-0.845154 0.257178,-1.874039 0.44095,-3.086659 0.183687,-1.249355 0.367416,-2.572207 0.551189,-3.96856 0.183686,-1.433081 0.385788,-2.884544 0.606308,-4.354394 0.220431,-1.506568 0.404161,-2.939658 0.55119,-4.299274 0.146938,-1.396326 0.275548,-2.682433 0.385832,-3.858324 0.110192,-1.175846 0.165311,-2.149613 0.165356,-2.921301 -4.5e-5,-1.616795 -0.165401,-2.939647 -0.496071,-3.968561 -0.294012,-1.065603 -0.679843,-1.892386 -1.157495,-2.480351 -0.477741,-0.624649 -1.010557,-1.047226 -1.598449,-1.267734 -0.551231,-0.25719 -1.084046,-0.3858 -1.598448,-0.385833 -0.698213,3.3e-5 -1.30452,0.128643 -1.818924,0.385833 -0.514482,0.220508 -0.826821,0.440982 -0.937022,0.661426 -0.367495,0.661458 -0.698209,1.414749 -0.99214,2.259876 -0.294004,0.845184 -0.569598,1.745458 -0.826783,2.700825 -0.220511,0.95542 -0.422614,1.910813 -0.606308,2.866183 -0.183765,0.955417 -0.330748,1.874065 -0.440951,2.755946 l -2.204756,15.874243 c -0.03678,0.293973 -0.183762,0.643059 -0.440951,1.04726 -0.257254,0.367462 -0.551222,0.734921 -0.881903,1.102378 -0.330745,0.367462 -0.67983,0.679801 -1.047259,0.937021 -0.330744,0.257223 -0.606338,0.385834 -0.826783,0.385833 l -7.937123,0 c -0.147005,1e-6 -0.220496,-0.09186 -0.220475,-0.275594 l 0,-0.110239 c 0.110217,-0.845154 0.2572,-1.874039 0.440951,-3.086659 0.183708,-1.249355 0.367437,-2.572207 0.551188,-3.96856 0.220454,-1.433081 0.422556,-2.884544 0.606309,-4.354394 0.220453,-1.506568 0.404182,-2.939658 0.551189,-4.299274 0.183706,-1.396326 0.312317,-2.682433 0.385832,-3.858324 0.110214,-1.175846 0.165333,-2.149613 0.165356,-2.921301 -2.3e-5,-1.616795 -0.165379,-2.939647 -0.496068,-3.968561 -0.293992,-1.065603 -0.679823,-1.892386 -1.157498,-2.480351 -0.477719,-0.624649 -1.010535,-1.047226 -1.598448,-1.267734 -0.55121,-0.25719 -1.084025,-0.3858 -1.598448,-0.385833 -0.661446,3.3e-5 -1.24938,0.128643 -1.763806,0.385833 -0.514459,0.220508 -0.845172,0.440982 -0.992139,0.661426 -0.367476,0.661458 -0.716561,1.414749 -1.04726,2.259876 -0.293983,0.845184 -0.569577,1.745458 -0.826784,2.700825 -0.220489,0.95542 -0.422592,1.910813 -0.606307,2.866183 -0.146997,0.955417 -0.275608,1.874065 -0.385832,2.755946 l -2.149637,15.874243 c -0.03676,0.293973 -0.202114,0.643059 -0.496071,1.04726 -0.257232,0.367462 -0.551199,0.734921 -0.881903,1.102378 -0.330723,0.367462 -0.679809,0.679801 -1.047259,0.937021 -0.330722,0.257223 -0.606316,0.385834 -0.826783,0.385833 l -7.882003,0 c -0.18373,1e-6 -0.275594,-0.12861 -0.275595,-0.385833 l 4.354394,-31.748487 c 0.03674,-0.293934 0.183725,-0.64302 0.440951,-1.047259 0.257217,-0.404171 0.551184,-0.77163 0.881903,-1.102378 0.330707,-0.367424 0.66142,-0.679764 0.99214,-0.937022 0.367452,-0.257185 0.661419,-0.385795 0.881902,-0.385832 l 1.102379,0 3.582728,0 c 0.69816,3.7e-5 1.230975,0.05515 1.598448,0.165356 0.367445,0.07353 0.698159,0.110275 0.99214,0.110239 0.220461,3.6e-5 0.404191,-0.03671 0.551189,-0.110239 2.131247,-0.698135 4.427866,-1.04722 6.889863,-1.047259 l 0.05512,0"
       inkscape:connector-curvature="0" />
    <path
       id="path2406"
       d="m 45.769585,0.01854572 c -0.718878,0.022823 -1.431675,0.05973901 -2.125,0.12500001 C 19.725973,2.3949597 -7.424324,33.855034 5.207085,62.018546 c 14.423041,32.15821 54.396875,33.2957 75.21875,13.5625 18.34052,-17.381584 -4.71502,-29.298991 -16.25,-4.84375 -10.034403,21.27386 -52.029984,18.77354 -54.375,-15.5 -2.981356,-43.57393 41.15927,-64.1183543 67.75,-42.9375 C 69.921275,4.0849567 56.55275,-0.32380227 45.769585,0.01854572 z M 80.175835,59.893546 c 1.52835,-0.09803 2.79799,0.369942 3.53125,1.4375 1.67602,2.440133 -0.11395,7.13247 -4,10.46875 -3.88606,3.33629 -8.38647,4.06514 -10.0625,1.625 -1.67602,-2.44013 0.11394,-7.132466 4,-10.46875 2.1859,-1.87666 4.56623,-2.93646 6.53125,-3.0625 z"
       style="fill:url(#radialGradient3795);fill-opacity:1;fill-rule:evenodd;stroke:none;stroke-width:8;marker:none;visibility:visible;display:inline;overflow:visible;enable-background:accumulate"
       inkscape:connector-curvature="0" />
  </g>
  <text
     xml:space="preserve"
     style="font-size:18px;font-style:normal;font-weight:normal;text-align:start;text-anchor:start;fill:#000000;fill-opacity:1;stroke:none;stroke-width:1px;stroke-linecap:butt;stroke-linejoin:miter;stroke-opacity:1;font-family:URW Chancery L"
     x="306.18881"
     y="79.207848"
     id="text3160"><tspan
       sodipodi:role="line"
       id="tspan3162"
       x="306.18881"
       y="79.207848" /></text>
</svg>
