<?xml version="1.0" encoding="UTF-8" standalone="no"?>
<!-- Created with Inkscape (http://www.inkscape.org/) -->
<svg
   xmlns:dc="http://purl.org/dc/elements/1.1/"
   xmlns:cc="http://creativecommons.org/ns#"
   xmlns:rdf="http://www.w3.org/1999/02/22-rdf-syntax-ns#"
   xmlns:svg="http://www.w3.org/2000/svg"
   xmlns="http://www.w3.org/2000/svg"
   xmlns:xlink="http://www.w3.org/1999/xlink"
   xmlns:sodipodi="http://sodipodi.sourceforge.net/DTD/sodipodi-0.dtd"
   xmlns:inkscape="http://www.inkscape.org/namespaces/inkscape"
   version="1.0"
   width="215.72267"
   height="91.210503"
   id="svg2"
   sodipodi:version="0.32"
   inkscape:version="0.46"
   sodipodi:docname="manasource-logo.svg"
   inkscape:output_extension="org.inkscape.output.svg.inkscape"
   inkscape:export-filename="/home/bjorn/Desktop/manasource2c.png"
   inkscape:export-xdpi="90"
   inkscape:export-ydpi="90">
  <metadata
     id="metadata9">
    <rdf:RDF>
      <cc:Work
         rdf:about="">
        <dc:format>image/svg+xml</dc:format>
        <dc:type
           rdf:resource="http://purl.org/dc/dcmitype/StillImage" />
      </cc:Work>
    </rdf:RDF>
  </metadata>
  <sodipodi:namedview
     inkscape:window-height="951"
     inkscape:window-width="1280"
     inkscape:pageshadow="2"
     inkscape:pageopacity="0.0"
     guidetolerance="10.0"
     gridtolerance="10.0"
     objecttolerance="10.0"
     borderopacity="1.0"
     bordercolor="#666666"
     pagecolor="#ffffff"
     id="base"
     showgrid="false"
     inkscape:zoom="2.8284271"
     inkscape:cx="129.70816"
     inkscape:cy="28.726563"
     inkscape:window-x="0"
     inkscape:window-y="25"
     inkscape:current-layer="svg2" />
  <defs
     id="defs4">
    <linearGradient
       id="linearGradient3496">
      <stop
         style="stop-color:#ffffff;stop-opacity:1;"
         offset="0"
         id="stop3498" />
      <stop
         style="stop-color:#1d2dfa;stop-opacity:0;"
         offset="1"
         id="stop3500" />
    </linearGradient>
    <inkscape:perspective
       sodipodi:type="inkscape:persp3d"
       inkscape:vp_x="0 : 50 : 1"
       inkscape:vp_y="0 : 1000 : 0"
       inkscape:vp_z="300 : 50 : 1"
       inkscape:persp3d-origin="150 : 33.333333 : 1"
       id="perspective11" />
    <clipPath
       clipPathUnits="userSpaceOnUse"
       id="clipPath2386">
      <rect
         style="opacity:0.8;fill:#000000;fill-opacity:1;fill-rule:evenodd;stroke:#000000;stroke-width:0.5;stroke-miterlimit:4;stroke-dasharray:none;stroke-dashoffset:0;stroke-opacity:1"
         id="rect2388"
         width="62.61343"
         height="26.678766"
         x="124.41016"
         y="66.515427" />
    </clipPath>
    <filter
       inkscape:collect="always"
       id="filter3374">
      <feGaussianBlur
         inkscape:collect="always"
         stdDeviation="1.5296557"
         id="feGaussianBlur3376" />
    </filter>
    <clipPath
       clipPathUnits="userSpaceOnUse"
       id="clipPath3388">
      <rect
         style="opacity:0.8;fill:#ffffff;fill-opacity:1;fill-rule:evenodd;stroke:#000000;stroke-width:0.5;stroke-miterlimit:4;stroke-dasharray:none;stroke-dashoffset:0;stroke-opacity:1"
         id="rect3390"
         width="162.63455"
         height="49.497475"
         x="564.81299"
         y="219.43652"
         ry="7"
         rx="7" />
    </clipPath>
    <filter
       inkscape:collect="always"
       id="filter3436">
      <feGaussianBlur
         inkscape:collect="always"
         stdDeviation="0.50988523"
         id="feGaussianBlur3438" />
    </filter>
    <clipPath
       clipPathUnits="userSpaceOnUse"
       id="clipPath3492">
      <rect
         y="405"
         x="51.928932"
         height="78"
         width="671"
         id="rect3494"
         style="opacity:1;fill:#fa1d24;fill-opacity:1;fill-rule:evenodd;stroke:#919191;stroke-width:1;stroke-miterlimit:4;stroke-dasharray:none;stroke-dashoffset:0;stroke-opacity:1" />
    </clipPath>
    <radialGradient
       inkscape:collect="always"
       xlink:href="#linearGradient3496"
       id="radialGradient3502"
       cx="348.73093"
       cy="462.78244"
       fx="348.73093"
       fy="462.78244"
       r="30.905592"
       gradientTransform="matrix(2.4798313,-0.1095192,7.3709675e-2,1.6690008,-546.41268,-274.89586)"
       gradientUnits="userSpaceOnUse" />
  </defs>
  <path
     d="M 37.929003,26.172935 C 39.619294,26.172974 41.272858,26.356703 42.889705,26.724124 C 44.543244,27.09162 45.95796,27.789793 47.13386,28.818643 L 47.18898,28.818643 C 47.482915,29.075899 47.776882,29.20451 48.070882,29.204475 C 48.438309,29.20451 48.860886,29.057526 49.338617,28.763524 C 49.81628,28.432845 50.459333,28.08376 51.267779,27.716265 C 52.076152,27.312096 53.105037,26.963009 54.354437,26.669006 C 55.640505,26.33833 57.275697,26.172974 59.260019,26.172935 C 61.611713,26.172974 63.614365,26.466941 65.267985,27.054838 C 66.921495,27.642809 68.244345,28.469592 69.236545,29.535188 C 70.265375,30.600854 71.000295,31.923706 71.441295,33.50375 C 71.918935,35.047107 72.157785,36.774165 72.157845,38.684926 C 72.157785,40.118041 72.047545,41.661369 71.827135,43.314914 L 69.622375,59.189157 C 69.585575,59.48313 69.438595,59.832216 69.181425,60.236417 C 68.924145,60.603879 68.630175,60.971338 68.299525,61.338795 C 67.968755,61.706257 67.619665,62.018596 67.252265,62.275816 C 66.921495,62.533039 66.645905,62.66165 66.425475,62.661649 L 58.488355,62.661649 C 58.341328,62.66165 58.267836,62.588158 58.26788,62.441173 L 58.26788,62.275816 C 58.378074,61.430662 58.525058,60.401777 58.70883,59.189157 C 58.892517,57.939802 59.076246,56.61695 59.260019,55.220597 C 59.443705,53.787516 59.645807,52.336053 59.866327,50.866203 C 60.086758,49.359635 60.270488,47.926545 60.417517,46.566929 C 60.564455,45.170603 60.693065,43.884496 60.803349,42.708605 C 60.913541,41.532759 60.96866,40.558992 60.968705,39.787304 C 60.96866,38.170509 60.803304,36.847657 60.472634,35.818743 C 60.178622,34.75314 59.792791,33.926357 59.315139,33.338392 C 58.837398,32.713743 58.304582,32.291166 57.71669,32.070658 C 57.165459,31.813468 56.632644,31.684858 56.118242,31.684825 C 55.420029,31.684858 54.813722,31.813468 54.299318,32.070658 C 53.784836,32.291166 53.472497,32.51164 53.362296,32.732084 C 52.994801,33.393542 52.664087,34.146833 52.370156,34.99196 C 52.076152,35.837144 51.800558,36.737418 51.543373,37.692785 C 51.322862,38.648205 51.120759,39.603598 50.937065,40.558968 C 50.7533,41.514385 50.606317,42.433033 50.496114,43.314914 L 48.291358,59.189157 C 48.254579,59.48313 48.107596,59.832216 47.850407,60.236417 C 47.593153,60.603879 47.299185,60.971338 46.968504,61.338795 C 46.637759,61.706257 46.288674,62.018596 45.921245,62.275816 C 45.590501,62.533039 45.314907,62.66165 45.094462,62.661649 L 37.157339,62.661649 C 37.010334,62.66165 36.936843,62.569786 36.936864,62.386055 L 36.936864,62.275816 C 37.047081,61.430662 37.194064,60.401777 37.377815,59.189157 C 37.561523,57.939802 37.745252,56.61695 37.929003,55.220597 C 38.149457,53.787516 38.351559,52.336053 38.535312,50.866203 C 38.755765,49.359635 38.939494,47.926545 39.086501,46.566929 C 39.270207,45.170603 39.398818,43.884496 39.472333,42.708605 C 39.582547,41.532759 39.637666,40.558992 39.637689,39.787304 C 39.637666,38.170509 39.47231,36.847657 39.141621,35.818743 C 38.847629,34.75314 38.461798,33.926357 37.984123,33.338392 C 37.506404,32.713743 36.973588,32.291166 36.385675,32.070658 C 35.834465,31.813468 35.30165,31.684858 34.787227,31.684825 C 34.125781,31.684858 33.537847,31.813468 33.023421,32.070658 C 32.508962,32.291166 32.178249,32.51164 32.031282,32.732084 C 31.663806,33.393542 31.314721,34.146833 30.984022,34.99196 C 30.690039,35.837144 30.414445,36.737418 30.157238,37.692785 C 29.936749,38.648205 29.734646,39.603598 29.550931,40.558968 C 29.403934,41.514385 29.275323,42.433033 29.165099,43.314914 L 27.015462,59.189157 C 26.978704,59.48313 26.813348,59.832216 26.519391,60.236417 C 26.262159,60.603879 25.968192,60.971338 25.637488,61.338795 C 25.306765,61.706257 24.957679,62.018596 24.590229,62.275816 C 24.259507,62.533039 23.983913,62.66165 23.763446,62.661649 L 15.881443,62.661649 C 15.697713,62.66165 15.605849,62.533039 15.605848,62.275816 L 19.960242,30.527329 C 19.996984,30.233395 20.143967,29.884309 20.401193,29.48007 C 20.65841,29.075899 20.952377,28.70844 21.283096,28.377692 C 21.613803,28.010268 21.944516,27.697928 22.275236,27.44067 C 22.642688,27.183485 22.936655,27.054875 23.157138,27.054838 L 24.259517,27.054838 L 27.842245,27.054838 C 28.540405,27.054875 29.07322,27.109993 29.440693,27.220194 C 29.808138,27.293723 30.138852,27.330469 30.432833,27.330433 C 30.653294,27.330469 30.837024,27.293723 30.984022,27.220194 C 33.115269,26.522059 35.411888,26.172974 37.873885,26.172935 L 37.929003,26.172935 M 97.548715,31.739944 C 96.336075,31.739976 95.288825,31.831841 94.406935,32.015539 C 93.525015,32.199301 92.753345,32.493267 92.091935,32.897442 C 91.467245,33.301678 90.934425,33.834492 90.493485,34.495889 C 90.052525,35.157346 89.648315,35.947382 89.280875,36.866002 C 88.839915,38.078644 88.417335,39.640345 88.013135,41.551109 C 87.608925,43.461919 87.406825,45.427824 87.406835,47.448831 C 87.406825,48.918684 87.535435,50.296655 87.792665,51.58275 C 88.086615,52.832122 88.564315,53.934499 89.225755,54.889883 C 89.923915,55.845285 90.842565,56.598577 91.981705,57.149758 C 93.120805,57.700954 94.572275,57.976548 96.336095,57.976542 C 97.695675,57.976548 98.981775,57.811191 100.19443,57.480472 C 101.44376,57.11302 102.38078,56.561831 103.00548,55.826905 C 103.33618,55.459454 103.70363,54.816401 104.10787,53.897743 C 104.51204,52.94236 104.87951,51.839983 105.21024,50.590608 C 105.57767,49.341262 105.87164,48.000037 106.09215,46.566929 C 106.34934,45.097111 106.47795,43.645648 106.47797,42.212536 C 106.47795,40.742722 106.33097,39.364751 106.03703,38.078618 C 105.74303,36.792537 105.24696,35.690161 104.54882,34.771484 C 103.88737,33.816121 102.96872,33.081202 101.79288,32.566728 C 100.65373,32.01557 99.239005,31.739976 97.548715,31.739944 M 113.58832,27.054838 L 119.37581,27.054838 L 119.48604,27.054838 C 119.59623,27.054875 119.65136,27.128367 119.6514,27.275313 L 119.6514,27.44067 L 115.297,59.189157 C 115.18672,59.372892 115.02137,59.666859 114.80094,60.07106 C 114.61716,60.438523 114.37832,60.824355 114.08438,61.228557 C 113.79038,61.596019 113.47805,61.926732 113.14737,62.220697 C 112.81662,62.514666 112.46753,62.66165 112.1001,62.661649 C 111.58563,62.66165 110.97932,62.680023 110.28118,62.716767 C 109.58298,62.753515 108.90318,62.771888 108.24178,62.771887 C 107.58032,62.771888 107.01076,62.735142 106.53311,62.661649 C 106.05537,62.551413 105.65117,62.441175 105.32049,62.330935 C 105.02649,62.220699 104.76927,62.128834 104.54882,62.05534 C 104.32831,61.945104 104.12621,61.889987 103.94251,61.889984 C 103.7955,61.889987 103.61177,61.926732 103.39132,62.000222 L 103.39132,61.945103 C 102.10519,62.459547 100.56186,62.863753 98.761325,63.157719 C 96.960765,63.414941 95.086715,63.543551 93.139195,63.543551 C 90.677205,63.543551 88.398955,63.341449 86.304455,62.937243 C 84.246675,62.496293 82.446125,61.761376 80.902805,60.732487 C 79.396215,59.666859 78.220345,58.252142 77.375195,56.488332 C 76.530035,54.68779 76.107455,52.427918 76.107455,49.708707 C 76.107455,47.540713 76.419795,45.299213 77.044475,42.984201 C 77.705905,40.66923 78.698045,38.482849 80.020895,36.425051 C 81.343745,34.330563 82.997315,32.474894 84.981595,30.858042 C 87.002615,29.241256 89.372725,28.065387 92.091935,27.330433 C 93.267795,26.999756 94.590645,26.742534 96.060505,26.558767 C 97.567065,26.375075 99.128765,26.28321 100.74561,26.283173 C 102.5094,26.28321 104.21808,26.411821 105.87167,26.669006 C 107.56196,26.926264 109.06853,27.312096 110.39143,27.826502 C 110.68536,27.900031 110.9242,27.936776 111.10796,27.93674 C 111.51213,27.936776 111.89797,27.808166 112.26547,27.550908 C 112.63289,27.256976 113.0371,27.109993 113.47808,27.109957 L 113.53321,27.165075 L 113.58832,27.054838 M 129.35922,27.054838 L 135.20181,26.999718 C 135.60601,26.999756 135.97348,27.128367 136.3042,27.38555 C 136.6349,27.606063 137.00236,27.716301 137.40657,27.716265 C 137.81076,27.716301 138.30684,27.642809 138.89479,27.495789 C 139.48271,27.312096 140.19924,27.128367 141.04442,26.9446 C 141.88956,26.760907 142.90007,26.59555 144.07597,26.44853 C 145.25181,26.264838 146.64815,26.172974 148.26499,26.172935 C 150.94743,26.172974 153.33591,26.411821 155.43046,26.889481 C 157.52494,27.367215 159.30711,28.138878 160.77699,29.204475 C 162.24678,30.270141 163.36754,31.666484 164.13924,33.393511 C 164.91086,35.083853 165.2967,37.141624 165.29674,39.566829 C 165.2967,40.154787 165.25995,40.761095 165.1865,41.385752 C 165.14971,42.010455 165.0946,42.653508 165.02114,43.314914 L 162.81639,59.189157 C 162.7796,59.48313 162.63262,59.832216 162.37544,60.236417 C 162.11817,60.603879 161.80584,60.971338 161.43842,61.338795 C 161.10765,61.706257 160.75858,62.018596 160.39116,62.275816 C 160.0604,62.533039 159.78481,62.66165 159.56438,62.661649 L 151.68237,62.661649 C 151.53536,62.66165 151.46187,62.588158 151.46189,62.441173 L 151.46189,62.275816 L 153.66664,46.070859 C 153.74012,45.335959 153.79523,44.619414 153.83201,43.921222 C 153.90547,43.186324 153.94222,42.469778 153.94225,41.771584 C 153.94222,40.375263 153.79523,39.070784 153.50129,37.858143 C 153.24404,36.645554 152.78472,35.579923 152.12333,34.661246 C 151.46187,33.742628 150.56158,33.026083 149.42249,32.511609 C 148.28334,31.997198 146.83188,31.739976 145.0681,31.739944 C 143.37776,31.739976 141.98143,31.942079 140.87907,32.346252 C 139.77667,32.750489 138.85802,33.411915 138.12312,34.330533 C 137.42494,35.212464 136.87374,36.369959 136.46956,37.803023 C 136.06533,39.23614 135.69787,40.963197 135.36718,42.984201 L 133.16242,59.189157 C 133.12566,59.48313 132.96031,59.832216 132.66635,60.236417 C 132.40911,60.603879 132.11515,60.971338 131.78444,61.338795 C 131.45372,61.706257 131.10463,62.018596 130.73719,62.275816 C 130.40647,62.533039 130.13087,62.66165 129.9104,62.661649 L 122.0284,62.661649 C 121.84467,62.66165 121.75281,62.533039 121.75281,62.275816 L 126.1072,30.527329 C 126.14394,30.233395 126.29093,29.884309 126.54815,29.48007 C 126.80537,29.075899 127.09933,28.70844 127.43005,28.377692 C 127.76077,28.010268 128.09147,27.697928 128.4222,27.44067 C 128.78965,27.183485 129.08361,27.054875 129.30409,27.054838 L 129.35922,27.054838 M 190.34655,31.739944 C 189.13392,31.739976 188.08666,31.831841 187.20478,32.015539 C 186.32286,32.199301 185.55119,32.493267 184.88978,32.897442 C 184.26509,33.301678 183.73228,33.834492 183.29133,34.495889 C 182.85037,35.157346 182.44616,35.947382 182.07871,36.866002 C 181.63776,38.078644 181.21518,39.640345 180.81098,41.551109 C 180.40677,43.461919 180.20467,45.427824 180.20467,47.448831 C 180.20467,48.918684 180.33327,50.296655 180.59051,51.58275 C 180.88446,52.832122 181.36216,53.934499 182.0236,54.889883 C 182.72176,55.845285 183.6404,56.598577 184.77955,57.149758 C 185.91865,57.700954 187.37011,57.976548 189.13394,57.976542 C 190.49352,57.976548 191.77962,57.811191 192.99227,57.480472 C 194.2416,57.11302 195.17861,56.561831 195.80333,55.826905 C 196.13401,55.459454 196.50147,54.816401 196.9057,53.897743 C 197.30988,52.94236 197.67734,51.839983 198.00808,50.590608 C 198.37551,49.341262 198.66948,48.000037 198.88998,46.566929 C 199.14718,45.097111 199.27579,43.645648 199.27582,42.212536 C 199.27579,40.742722 199.1288,39.364751 198.83487,38.078618 C 198.54087,36.792537 198.04479,35.690161 197.34665,34.771484 C 196.68521,33.816121 195.76655,33.081202 194.59071,32.566728 C 193.45156,32.01557 192.03684,31.739976 190.34655,31.739944 M 206.38615,27.054838 L 212.17364,27.054838 L 212.28388,27.054838 C 212.39408,27.054875 212.44919,27.128367 212.44923,27.275313 L 212.44923,27.44067 L 208.09484,59.189157 C 207.98456,59.372892 207.81921,59.666859 207.59877,60.07106 C 207.41501,60.438523 207.17615,60.824355 206.88223,61.228557 C 206.58822,61.596019 206.27588,61.926732 205.94521,62.220697 C 205.61445,62.514666 205.26536,62.66165 204.89794,62.661649 C 204.38346,62.66165 203.77716,62.680023 203.07903,62.716767 C 202.38081,62.753515 201.70102,62.771888 201.03962,62.771887 C 200.37815,62.771888 199.8086,62.735142 199.33094,62.661649 C 198.85321,62.551413 198.449,62.441175 198.11832,62.330935 C 197.82433,62.220699 197.5671,62.128834 197.34665,62.05534 C 197.12615,61.945104 196.92405,61.889987 196.74035,61.889984 C 196.59333,61.889987 196.40961,61.926732 196.18916,62.000222 L 196.18916,61.945103 C 194.90302,62.459547 193.3597,62.863753 191.55916,63.157719 C 189.7586,63.414941 187.88455,63.543551 185.93703,63.543551 C 183.47504,63.543551 181.1968,63.341449 179.1023,62.937243 C 177.04452,62.496293 175.24398,61.761376 173.70065,60.732487 C 172.19406,59.666859 171.01819,58.252142 170.17304,56.488332 C 169.32788,54.68779 168.9053,52.427918 168.9053,49.708707 C 168.9053,47.540713 169.21764,45.299213 169.84232,42.984201 C 170.50376,40.66923 171.49589,38.482849 172.81874,36.425051 C 174.14159,34.330563 175.79515,32.474894 177.77945,30.858042 C 179.80046,29.241256 182.17057,28.065387 184.88978,27.330433 C 186.06564,26.999756 187.38849,26.742534 188.85835,26.558767 C 190.3649,26.375075 191.9266,26.28321 193.54344,26.283173 C 195.30723,26.28321 197.01591,26.411821 198.66951,26.669006 C 200.35979,26.926264 201.86637,27.312096 203.18926,27.826502 C 203.4832,27.900031 203.72204,27.936776 203.9058,27.93674 C 204.30998,27.936776 204.6958,27.808166 205.06331,27.550908 C 205.43073,27.256976 205.83493,27.109993 206.27592,27.109957 L 206.33104,27.165075 L 206.38615,27.054838"
     id="text2395"
     style="font-size:66.33274078px;font-style:normal;font-variant:normal;font-weight:normal;font-stretch:normal;text-align:start;line-height:125%;writing-mode:lr-tb;text-anchor:start;fill:#ff6600;fill-opacity:1;stroke:none;stroke-width:1px;stroke-linecap:butt;stroke-linejoin:miter;stroke-opacity:1;font-family:Beroga;-inkscape-font-specification:Beroga" />
  <path
     style="fill:#ff6600;fill-opacity:1;fill-rule:evenodd;stroke:none;stroke-width:8;stroke-linecap:butt;stroke-linejoin:miter;marker:none;marker-start:none;marker-mid:none;marker-end:none;stroke-miterlimit:4;stroke-dasharray:none;stroke-dashoffset:0;stroke-opacity:1;visibility:visible;display:inline;overflow:visible;enable-background:accumulate"
     d="M 43.769585,0.018545726 C 43.050707,0.041368726 42.33791,0.078284726 41.644585,0.14354573 C 17.725973,2.3949597 -9.424324,33.855034 3.207085,62.018546 C 17.630126,94.176756 57.60396,95.314246 78.425835,75.581046 C 96.766355,58.199462 73.710815,46.282055 62.175835,70.737296 C 52.141432,92.011156 10.145851,89.510836 7.800835,55.237296 C 4.819479,11.663366 48.960105,-8.8810583 75.550835,12.299796 C 67.921275,4.0849567 54.55275,-0.32380227 43.769585,0.018545726 z M 78.175835,59.893546 C 79.704185,59.795515 80.973825,60.263488 81.707085,61.331046 C 83.383105,63.771179 81.593135,68.463516 77.707085,71.799796 C 73.821025,75.136086 69.320615,75.864936 67.644585,73.424796 C 65.968565,70.984666 67.758525,66.29233 71.644585,62.956046 C 73.830485,61.079386 76.210815,60.019586 78.175835,59.893546 z"
     id="path2406" />
  <path
     d="M 127.63812,75.853121 C 127.57311,75.942517 127.51622,76.031906 127.46747,76.12129 C 127.42684,76.194434 127.3862,76.271633 127.34558,76.35289 C 127.31307,76.426033 127.29681,76.48698 127.29681,76.535733 C 127.29681,76.657634 127.39026,76.76734 127.57718,76.864849 C 127.76407,76.954245 127.99161,77.035508 128.25979,77.108639 C 128.53608,77.181782 128.82457,77.250855 129.12524,77.315861 C 129.43404,77.380876 129.7022,77.445887 129.92975,77.510893 C 130.3198,77.624666 130.718,77.742498 131.12431,77.864388 C 131.53063,77.986287 131.89631,78.128498 132.22137,78.291021 C 132.55455,78.445426 132.82678,78.632331 133.03807,78.851737 C 133.24934,79.071152 133.35498,79.331194 133.35499,79.631865 C 133.35498,79.875658 133.2981,80.119447 133.18434,80.363234 C 133.07869,80.607027 132.93648,80.838627 132.75771,81.058036 C 132.57892,81.277448 132.37577,81.47248 132.14823,81.643131 C 131.92069,81.813785 131.69315,81.94787 131.46562,82.045385 C 131.09181,82.207912 130.64486,82.333871 130.12478,82.423259 C 129.60469,82.504523 129.06429,82.545155 128.50358,82.545155 C 128.15414,82.545155 127.80877,82.528901 127.46747,82.496397 C 127.13428,82.455765 126.81736,82.39888 126.51669,82.325744 C 126.21601,82.252607 125.93972,82.163217 125.68781,82.057575 C 125.444,81.943806 125.24492,81.809722 125.09051,81.655321 C 124.92799,81.500922 124.77765,81.293701 124.63951,81.033657 C 124.50135,80.773616 124.43229,80.513574 124.43229,80.253529 C 124.43229,80.099131 124.46479,79.960984 124.5298,79.839086 C 124.59481,79.709068 124.68014,79.587173 124.78578,79.473401 L 124.78578,79.461212 C 124.9483,79.274309 125.1149,79.132099 125.28555,79.034579 L 125.27336,79.034579 C 125.33837,79.002078 125.39932,78.977699 125.45621,78.961443 C 125.52121,78.937068 125.58622,78.924877 125.65123,78.924874 C 126.0413,78.924877 126.31759,78.933004 126.48013,78.949253 C 126.64264,78.957383 126.74829,78.998015 126.79704,79.071149 C 126.85393,79.144288 126.88237,79.258057 126.88237,79.412454 C 126.88237,79.558731 126.91894,79.765953 126.99208,80.034118 C 127.05708,80.277911 127.15866,80.485131 127.29681,80.655783 C 127.44309,80.826438 127.60967,80.964584 127.79659,81.070225 C 127.99161,81.17587 128.19883,81.253069 128.41825,81.301826 C 128.63766,81.342459 128.86113,81.362774 129.08867,81.362773 C 129.25932,81.362774 129.43404,81.350586 129.61282,81.326205 C 129.7916,81.293701 129.95818,81.253069 130.11259,81.20431 C 130.26698,81.147427 130.40107,81.08648 130.51484,81.021467 C 130.6286,80.948332 130.70175,80.875196 130.73425,80.802056 C 130.86427,80.517637 130.86427,80.286037 130.73425,80.107256 C 130.60423,79.928479 130.40513,79.782205 130.13697,79.668434 C 129.87693,79.546542 129.57625,79.444962 129.23494,79.363696 C 128.90176,79.282436 128.59297,79.19711 128.30854,79.107717 C 127.89409,78.985826 127.47153,78.876119 127.04083,78.7786 C 126.61827,78.672962 126.23632,78.538877 125.89502,78.376347 C 125.59435,78.254456 125.36681,78.112246 125.21242,77.949714 C 125.06613,77.779066 124.993,77.555592 124.993,77.279293 C 124.993,77.051761 125.03363,76.82016 125.1149,76.584491 C 125.20428,76.340707 125.33025,76.109107 125.49277,75.889689 C 125.65529,75.662159 125.85033,75.454938 126.07787,75.268025 C 126.31353,75.081127 126.57763,74.922663 126.87019,74.792635 C 127.31713,74.597611 127.80065,74.467589 128.32073,74.402572 C 128.84894,74.337568 129.36496,74.305064 129.86879,74.305055 C 130.26698,74.305064 130.66923,74.337568 131.07556,74.402572 C 131.48187,74.459464 131.85567,74.569169 132.197,74.731688 C 132.53829,74.886095 132.83084,75.105506 133.07464,75.38992 C 133.32654,75.666222 133.50126,76.019718 133.59879,76.450406 C 133.60691,76.474792 133.61097,76.515423 133.61098,76.572301 C 133.61097,76.694202 133.57033,76.832349 133.48908,76.986745 C 133.41594,77.14115 133.31842,77.287424 133.19653,77.425566 C 133.08275,77.555592 132.9568,77.665298 132.81866,77.754682 C 132.68051,77.844077 132.55049,77.888772 132.4286,77.888767 C 132.39608,77.888772 132.3717,77.884708 132.35546,77.876578 C 132.04665,77.811572 131.80692,77.754687 131.63628,77.705924 C 131.47374,77.657172 131.35185,77.608414 131.2706,77.559651 C 131.19745,77.502772 131.15276,77.441823 131.1365,77.376808 C 131.12024,77.303677 131.10806,77.222414 131.09994,77.133018 C 131.09181,77.035508 131.07149,76.92174 131.039,76.791713 C 131.00648,76.661696 130.93335,76.503234 130.81958,76.316322 C 130.64892,76.031906 130.40513,75.824686 130.08822,75.694658 C 129.77941,75.564644 129.45029,75.499633 129.10086,75.499626 C 128.84894,75.499633 128.60109,75.532138 128.35731,75.597142 C 128.1135,75.662159 127.89409,75.751548 127.69907,75.86531 C 127.66655,75.88157 127.6503,75.889696 127.65032,75.889689 C 127.63405,75.889696 127.62593,75.885633 127.62593,75.8775 C 127.63405,75.869381 127.63405,75.865317 127.62593,75.86531 L 127.61374,75.8775 L 127.63812,75.853121 M 140.24892,74.280676 C 140.84213,74.280684 141.37035,74.333506 141.83356,74.43914 C 142.29675,74.54479 142.69087,74.715443 143.01593,74.951099 C 143.34097,75.186769 143.58883,75.49557 143.75949,75.8775 C 143.93014,76.251317 144.01546,76.706393 144.01547,77.242723 C 144.01546,78.112246 143.87731,78.876119 143.60103,79.534349 C 143.33285,80.192584 142.95497,80.745175 142.4674,81.192121 C 141.98795,81.639069 141.41504,81.976312 140.74868,82.203849 C 140.08233,82.423259 139.35907,82.532965 138.57896,82.532965 C 137.98572,82.532965 137.45345,82.480144 136.98213,82.374501 C 136.51893,82.26886 136.12481,82.098207 135.79975,81.862542 C 135.4747,81.62688 135.22684,81.322143 135.0562,80.948331 C 134.88554,80.566395 134.80021,80.103195 134.80021,79.558728 C 134.80021,78.689214 134.93429,77.92534 135.20247,77.267103 C 135.47876,76.608876 135.86069,76.060349 136.34828,75.62152 C 136.83586,75.17458 137.40877,74.8414 138.06699,74.621982 C 138.73335,74.394453 139.45659,74.280684 140.23673,74.280676 L 140.24892,74.280676 M 140.54147,75.706848 C 140.25704,75.576832 139.91979,75.511822 139.52974,75.511815 C 139.23718,75.511822 138.95276,75.552455 138.67648,75.63371 C 138.40017,75.706854 138.19295,75.824686 138.05481,75.987206 C 137.98167,76.076601 137.90041,76.222876 137.81102,76.426027 C 137.72162,76.629192 137.6363,76.872982 137.55504,77.157397 C 137.4819,77.433698 137.41689,77.734371 137.36,78.05942 C 137.31125,78.376352 137.28687,78.693278 137.28687,79.0102 C 137.28687,79.335258 137.31531,79.639995 137.37219,79.924413 C 137.4372,80.200711 137.54691,80.4445 137.70131,80.655783 C 137.8557,80.858942 138.05887,81.021469 138.31078,81.143362 C 138.57083,81.257132 138.89181,81.314016 139.27376,81.314015 C 139.5663,81.314016 139.85071,81.277448 140.12702,81.20431 C 140.40331,81.123048 140.61053,81.001154 140.74868,80.838625 C 140.82182,80.757364 140.90307,80.615152 140.99247,80.411993 C 141.08186,80.200711 141.16313,79.956921 141.23627,79.680623 C 141.30939,79.404331 141.37035,79.103657 141.41911,78.7786 C 141.47598,78.453551 141.50443,78.132562 141.50444,77.81563 C 141.50443,77.588098 141.48818,77.368687 141.45567,77.157397 C 141.42316,76.937992 141.36627,76.734834 141.28502,76.547923 C 141.21188,76.361023 141.11436,76.198497 140.99247,76.060343 C 140.87057,75.914076 140.72024,75.796243 140.54147,75.706848 M 152.73535,82.350122 L 151.44325,82.350122 C 151.34573,82.350123 151.26041,82.325744 151.18727,82.276986 C 151.12225,82.220102 151.041,82.19166 150.94348,82.19166 C 150.85409,82.19166 150.74438,82.211975 150.61437,82.252607 C 150.49247,82.285113 150.33807,82.321681 150.15116,82.362312 C 149.96426,82.402944 149.73672,82.443575 149.46855,82.484207 C 149.20851,82.516712 148.90378,82.532965 148.55435,82.532965 C 147.96111,82.532965 147.42885,82.480144 146.95752,82.374501 C 146.49432,82.26886 146.1002,82.098207 145.77514,81.862542 C 145.45009,81.62688 145.20223,81.322143 145.03158,80.948331 C 144.86093,80.566395 144.7756,80.103195 144.7756,79.558728 C 144.78373,79.436836 144.79185,79.310879 144.79998,79.180854 C 144.8081,79.04271 144.82029,78.900498 144.83655,78.754221 L 145.32413,75.243647 C 145.33226,75.178643 145.36476,75.101443 145.42165,75.012046 C 145.47853,74.922663 145.54354,74.8414 145.61667,74.768256 C 145.68981,74.687 145.76294,74.617926 145.83608,74.561034 C 145.91735,74.504159 145.98237,74.475716 146.03112,74.475708 L 147.78641,74.475708 C 147.81891,74.475716 147.83516,74.496032 147.83516,74.536655 L 147.83516,74.561034 L 147.34758,78.144746 C 147.29883,78.47793 147.27445,78.794856 147.27445,79.095527 C 147.27445,79.404331 147.30289,79.692815 147.35977,79.960981 C 147.42478,80.229152 147.53043,80.464817 147.6767,80.667972 C 147.8311,80.863006 148.03425,81.021469 148.28617,81.143362 C 148.53809,81.257132 148.85908,81.314016 149.24915,81.314015 C 149.61483,81.314016 149.91956,81.269321 150.16335,81.179931 C 150.40714,81.090543 150.60624,80.948332 150.76065,80.753299 C 150.92316,80.558269 151.04912,80.30229 151.13852,79.98536 C 151.23602,79.668436 151.32135,79.282436 151.3945,78.827359 L 151.88207,75.243647 C 151.89019,75.186769 151.9227,75.113633 151.97959,75.024235 C 152.03646,74.934854 152.10148,74.849527 152.17463,74.768256 C 152.24775,74.687 152.32496,74.617926 152.40623,74.561034 C 152.48748,74.504159 152.55249,74.475716 152.60125,74.475708 L 154.34435,74.475708 C 154.38497,74.475716 154.4053,74.504159 154.4053,74.561034 L 153.43014,81.582184 C 153.42201,81.647196 153.3895,81.724397 153.33263,81.813785 C 153.27573,81.903175 153.21072,81.988501 153.1376,82.069764 C 153.06445,82.151028 152.98724,82.220102 152.90599,82.276986 C 152.83285,82.325744 152.77191,82.350123 152.72315,82.350122 L 152.73535,82.350122 M 156.56437,74.475708 L 157.85645,74.463519 C 157.94584,74.463527 158.02711,74.491969 158.10024,74.548845 C 158.17338,74.597611 158.25465,74.62199 158.34403,74.621982 C 158.43342,74.62199 158.54312,74.605737 158.67315,74.573224 C 158.80317,74.5326 158.96163,74.491969 159.14854,74.451329 C 159.33544,74.410706 159.55892,74.374138 159.81896,74.341623 C 160.079,74.301 160.3878,74.280684 160.74536,74.280676 C 161.17606,74.280684 161.59456,74.31319 162.00088,74.378193 C 162.40719,74.435085 162.77693,74.548854 163.11012,74.719498 C 163.45142,74.882032 163.73585,75.10957 163.96339,75.402109 C 164.19904,75.686538 164.36157,76.052223 164.45097,76.499165 L 164.45097,76.59668 C 164.45096,76.726707 164.41033,76.864855 164.32908,77.011124 C 164.25593,77.149276 164.15841,77.287424 164.03652,77.425566 C 163.83336,77.644982 163.65865,77.78313 163.51238,77.840009 C 163.37422,77.896899 163.20357,77.92534 163.00042,77.925335 C 162.91914,77.92534 162.83383,77.92534 162.74444,77.925335 C 162.66317,77.917214 162.56566,77.913151 162.4519,77.913146 C 162.30561,77.913151 162.19997,77.876583 162.13497,77.803441 C 162.07807,77.722183 162.03338,77.616539 162.00088,77.486513 C 161.97649,77.356498 161.95618,77.214287 161.93993,77.059881 C 161.92367,76.897361 161.88711,76.734834 161.83023,76.572301 C 161.77334,76.401655 161.68395,76.243192 161.56206,76.096911 C 161.44016,75.942517 161.26544,75.812497 161.03792,75.706848 C 160.75348,75.576832 160.41624,75.511822 160.02618,75.511815 C 159.73363,75.511822 159.44921,75.552455 159.17291,75.63371 C 158.90475,75.706854 158.70158,75.824686 158.56344,75.987206 C 158.47405,76.084728 158.39279,76.214749 158.31965,76.377269 C 158.25465,76.539802 158.19369,76.714518 158.13682,76.901418 C 158.07992,77.088329 158.03117,77.279297 157.99053,77.474324 C 157.9499,77.669361 157.9174,77.844077 157.89303,77.998472 L 157.40544,81.582184 C 157.39731,81.647196 157.36075,81.724397 157.29573,81.813785 C 157.23885,81.895049 157.17384,81.976312 157.10071,82.057575 C 157.02756,82.138838 156.95036,82.207912 156.86911,82.264796 C 156.79596,82.321681 156.73501,82.350123 156.68626,82.350122 L 154.94316,82.350122 C 154.90253,82.350123 154.88222,82.321681 154.88222,82.264796 L 155.84519,75.243647 C 155.85331,75.178643 155.88581,75.101443 155.9427,75.012046 C 155.99958,74.922663 156.0646,74.8414 156.13773,74.768256 C 156.21087,74.687 156.28401,74.617926 156.35714,74.561034 C 156.43841,74.504159 156.50341,74.475716 156.55218,74.475708 L 156.56437,74.475708 M 165.06254,80.448561 C 164.9894,80.147889 164.95283,79.8269 164.95283,79.485591 C 164.95283,79.103657 164.99752,78.717657 165.08692,78.327589 C 165.17631,77.929403 165.30226,77.547467 165.4648,77.181776 C 165.63544,76.816097 165.84267,76.470728 166.08646,76.145669 C 166.33025,75.820622 166.60654,75.536201 166.91534,75.292404 C 167.34604,74.951106 167.87831,74.695127 168.51217,74.524466 C 169.14602,74.353822 169.788,74.268496 170.43811,74.268487 C 170.9338,74.268496 171.40107,74.321316 171.8399,74.42695 C 172.28684,74.524474 172.6769,74.670748 173.01009,74.865772 C 173.34326,75.060811 173.60737,75.300538 173.80241,75.584952 C 173.99744,75.869381 174.09494,76.19037 174.09496,76.547923 C 174.09494,76.686076 174.05431,76.836412 173.97307,76.998934 C 173.89992,77.15334 173.8024,77.299613 173.68051,77.437755 C 173.56674,77.575908 173.43672,77.689677 173.29045,77.779062 C 173.14416,77.868456 173.00196,77.913151 172.86382,77.913146 C 172.77442,77.913151 172.68503,77.917214 172.59565,77.925335 C 172.51438,77.92534 172.43311,77.92534 172.35186,77.925335 C 172.16495,77.92534 172.00242,77.900962 171.86429,77.852199 C 171.73425,77.795319 171.66112,77.673424 171.64487,77.486513 C 171.62048,77.177719 171.57172,76.901423 171.49859,76.657628 C 171.42545,76.413844 171.31169,76.206622 171.15728,76.035964 C 171.01101,75.865317 170.81597,75.735296 170.57219,75.645899 C 170.33652,75.556517 170.04398,75.511822 169.69455,75.511815 C 169.42637,75.511822 169.19478,75.532138 168.99975,75.572763 C 168.80471,75.613402 168.63406,75.678412 168.48778,75.767795 C 168.34963,75.857192 168.2318,75.975023 168.13429,76.12129 C 168.03678,76.267571 167.94739,76.442287 167.86612,76.645438 C 167.7686,76.913613 167.67516,77.258982 167.58577,77.681545 C 167.49637,78.104119 167.45168,78.538877 167.45169,78.985821 C 167.45168,79.310879 167.48012,79.615616 167.53701,79.900034 C 167.60202,80.176332 167.70766,80.420122 167.85394,80.631403 C 168.00833,80.84269 168.21555,81.009279 168.4756,81.131174 C 168.73564,81.253069 169.06475,81.314016 169.46295,81.314015 C 169.77988,81.314016 170.08867,81.261196 170.38935,81.155551 C 170.69001,81.049912 170.91349,80.858942 171.05978,80.582645 C 171.11665,80.477006 171.17759,80.334794 171.24261,80.156014 C 171.30762,79.977237 171.39294,79.798457 171.49859,79.619676 C 171.60423,79.432773 171.73425,79.270246 171.88866,79.132096 C 172.05118,78.993951 172.25028,78.916752 172.48595,78.900495 L 172.51032,78.900495 L 172.49813,78.900495 L 172.51032,78.900495 C 172.55907,78.900498 172.62002,78.900498 172.69317,78.900495 C 172.76629,78.892373 172.8435,78.888309 172.92477,78.888306 C 173.02227,78.888309 173.11573,78.896436 173.20512,78.912685 C 173.30263,78.920815 173.38795,78.941131 173.4611,78.973632 C 173.54236,79.006142 173.60737,79.054899 173.65614,79.119906 C 173.70488,79.176794 173.72926,79.253994 173.72928,79.351507 C 173.72926,79.50591 173.67644,79.684689 173.57081,79.887845 C 173.46516,80.091006 173.33514,80.294163 173.18075,80.497319 C 173.02633,80.70048 172.85975,80.895512 172.68098,81.082415 C 172.50219,81.269321 172.33967,81.419659 172.19339,81.533426 C 171.75456,81.874733 171.21823,82.130712 170.58439,82.301365 C 169.95052,82.472018 169.30449,82.557344 168.64625,82.557344 C 168.17492,82.557344 167.7361,82.520776 167.32979,82.447638 C 166.93159,82.366376 166.5781,82.244481 166.26931,82.081954 C 165.9605,81.911302 165.70046,81.695954 165.48918,81.435911 C 165.27789,81.167743 165.13162,80.846753 165.05035,80.47294 L 165.06254,80.448561 M 183.69647,75.828742 C 183.76148,75.966896 183.81429,76.109107 183.85494,76.255375 C 183.90369,76.401655 183.92806,76.543865 183.92807,76.682007 C 183.92806,76.990813 183.79804,77.263045 183.53801,77.498704 C 183.27795,77.726246 182.94072,77.929403 182.52628,78.108178 C 182.11182,78.286962 181.64862,78.441362 181.13667,78.571379 C 180.63284,78.701404 180.13306,78.819235 179.63737,78.924874 C 179.14978,79.030521 178.69471,79.123973 178.27215,79.205233 C 177.84957,79.2865 177.52045,79.371826 177.28479,79.461212 C 177.31729,79.8269 177.39043,80.131637 177.50421,80.375425 C 177.6261,80.61109 177.77237,80.802058 177.94303,80.948331 C 178.1218,81.08648 178.31684,81.183995 178.52813,81.240879 C 178.73941,81.297764 178.95475,81.326206 179.17416,81.326205 C 179.34482,81.326206 179.5114,81.314016 179.67394,81.289636 C 179.83646,81.257132 179.98679,81.216501 180.12495,81.167742 C 180.26309,81.118985 180.38093,81.066164 180.47845,81.009278 C 180.58407,80.952395 180.66128,80.895512 180.71005,80.838625 C 180.80755,80.732985 180.89288,80.578584 180.96603,80.375425 C 181.04728,80.164142 181.14073,79.956921 181.24638,79.75376 C 181.35202,79.542479 181.4861,79.355572 181.64864,79.193043 C 181.81116,79.022394 182.0265,78.924877 182.29468,78.900495 L 182.31905,78.900495 C 182.37594,78.900498 182.44094,78.900498 182.51409,78.900495 C 182.59535,78.892373 182.68067,78.888309 182.77007,78.888306 C 182.85945,78.888309 182.94884,78.896436 183.03824,78.912685 C 183.13574,78.920815 183.22107,78.941131 183.29422,78.973632 C 183.36734,78.998015 183.42423,79.04271 183.46487,79.107717 C 183.51361,79.164604 183.538,79.241805 183.53801,79.339316 C 183.538,79.49372 183.48517,79.6725 183.37955,79.875655 C 183.2739,80.078815 183.14387,80.286037 182.98948,80.497319 C 182.83507,80.70048 182.66848,80.895512 182.48971,81.082415 C 182.31092,81.269321 182.1484,81.419659 182.00213,81.533426 C 181.5633,81.874733 181.02696,82.130712 180.39312,82.301365 C 179.75925,82.472018 179.11322,82.557344 178.45499,82.557344 C 177.88614,82.557344 177.37418,82.504523 176.91911,82.39888 C 176.46403,82.293238 176.07397,82.118522 175.74892,81.874732 C 175.43199,81.630944 175.1882,81.314016 175.01755,80.923952 C 174.84689,80.533889 174.76158,80.054436 174.76158,79.485591 C 174.76158,78.851741 174.86721,78.226014 175.0785,77.608409 C 175.29791,76.982687 175.63109,76.426033 176.07804,75.938447 C 176.52499,75.450875 177.08977,75.056748 177.77237,74.756067 C 178.46311,74.447274 179.28387,74.292873 180.23466,74.292865 C 180.58407,74.292873 180.93351,74.321316 181.28296,74.378193 C 181.64051,74.426958 181.97368,74.512284 182.28249,74.634171 C 182.59128,74.756074 182.86758,74.918601 183.11137,75.121751 C 183.35515,75.31679 183.54613,75.56058 183.68428,75.853121 L 183.69647,75.828742 M 180.49064,75.731226 C 180.20621,75.601212 179.86896,75.536201 179.47891,75.536194 C 179.18635,75.536201 178.90193,75.576832 178.62564,75.658089 C 178.35746,75.731233 178.15431,75.849065 178.01616,76.011585 C 177.91053,76.133486 177.81707,76.29195 177.73581,76.486975 C 177.66266,76.682013 177.5936,76.893297 177.52858,77.120829 C 177.4717,77.340245 177.42294,77.563719 177.38231,77.791251 C 177.34981,78.018793 177.32137,78.226014 177.29698,78.412915 C 177.43514,78.380414 177.6261,78.339782 177.86989,78.291021 C 178.1218,78.23414 178.39404,78.16913 178.68659,78.095989 C 178.97913,78.014729 179.27574,77.929403 179.57642,77.840009 C 179.87709,77.742498 180.14933,77.632793 180.39312,77.510893 C 180.6369,77.389003 180.836,77.254918 180.9904,77.108639 C 181.14479,76.962371 181.222,76.803908 181.222,76.633249 C 181.222,76.446349 181.14479,76.271633 180.9904,76.1091 C 180.836,75.938455 180.6694,75.812497 180.49064,75.731226 M 196.46668,74.305055 C 197.05177,74.305064 197.57592,74.357885 198.03912,74.463519 C 198.51044,74.569169 198.90864,74.739822 199.23369,74.975478 C 199.55874,75.203023 199.80659,75.503696 199.97726,75.8775 C 200.1479,76.251317 200.23323,76.706393 200.23323,77.242723 C 200.23323,78.120372 200.09508,78.892373 199.8188,79.558728 C 199.55061,80.216963 199.17274,80.769554 198.68517,81.2165 C 198.20571,81.655323 197.63281,81.988501 196.96645,82.216039 C 196.30009,82.443575 195.57684,82.557344 194.79672,82.557344 C 194.48792,82.557344 194.18318,82.545155 193.88251,82.520776 C 193.58183,82.48827 193.2974,82.431386 193.02924,82.350122 L 192.67575,84.83678 C 192.66762,84.901788 192.63512,84.978989 192.57823,85.068381 C 192.52135,85.165893 192.45633,85.255283 192.3832,85.33655 C 192.31006,85.425936 192.23286,85.499073 192.1516,85.55596 C 192.07846,85.620967 192.01752,85.653473 191.96876,85.653476 L 190.22566,85.665666 L 190.18909,85.665666 C 190.15659,85.665662 190.14033,85.64941 190.14033,85.616908 L 190.12814,85.629097 L 191.51774,75.37773 C 191.52587,75.312728 191.55838,75.235527 191.61526,75.14613 C 191.67215,75.056748 191.73716,74.971422 191.8103,74.89015 C 191.88343,74.808896 191.95657,74.739822 192.02971,74.68293 C 192.11096,74.626053 192.17598,74.597611 192.22473,74.597603 L 193.51682,74.597603 C 193.61433,74.597611 193.6956,74.626053 193.76062,74.68293 C 193.83375,74.731695 193.91501,74.756074 194.00441,74.756067 C 194.09379,74.756074 194.19537,74.731695 194.30914,74.68293 C 194.43103,74.63418 194.58544,74.585422 194.77234,74.536655 C 194.96737,74.47978 195.19897,74.426958 195.46714,74.378193 C 195.74343,74.329443 196.07661,74.305064 196.46668,74.305055 M 196.71047,75.828742 C 196.57232,75.763739 196.41385,75.719044 196.23508,75.694658 C 196.06442,75.662159 195.88565,75.645906 195.69874,75.645899 C 195.39807,75.645906 195.11364,75.682476 194.84548,75.755605 C 194.5773,75.828749 194.37415,75.94658 194.23601,76.1091 C 194.16286,76.198497 194.0816,76.348834 193.99222,76.560112 C 193.90283,76.763276 193.8175,77.003003 193.73623,77.279293 C 193.6631,77.555592 193.59808,77.856266 193.54121,78.181315 C 193.49244,78.506373 193.46806,78.827362 193.46807,79.144285 C 193.46806,79.469341 193.4965,79.774078 193.55339,80.058497 C 193.6184,80.334794 193.72404,80.574521 193.87031,80.777677 C 194.02472,80.980838 194.22787,81.143364 194.4798,81.265257 C 194.73983,81.379028 195.06083,81.435912 195.44276,81.435911 C 195.7353,81.435912 196.01973,81.399343 196.29603,81.326205 C 196.57232,81.253069 196.77954,81.135238 196.9177,80.97271 C 196.99082,80.883321 197.07209,80.737048 197.16149,80.533888 C 197.25086,80.322605 197.33213,80.078815 197.40527,79.802518 C 197.4784,79.526226 197.53935,79.229615 197.58811,78.912685 C 197.645,78.587636 197.67344,78.266646 197.67344,77.949714 C 197.67344,77.486519 197.60029,77.059887 197.45403,76.669817 C 197.31588,76.27976 197.06802,75.999402 196.71047,75.828742 M 202.72732,74.475708 L 204.01941,74.463519 C 204.10879,74.463527 204.19006,74.491969 204.2632,74.548845 C 204.33633,74.597611 204.4176,74.62199 204.50698,74.621982 C 204.59637,74.62199 204.70608,74.605737 204.8361,74.573224 C 204.96612,74.5326 205.12459,74.491969 205.31149,74.451329 C 205.4984,74.410706 205.72187,74.374138 205.98192,74.341623 C 206.24195,74.301 206.55075,74.280684 206.90832,74.280676 C 207.33901,74.280684 207.75751,74.31319 208.16384,74.378193 C 208.57014,74.435085 208.93989,74.548854 209.27308,74.719498 C 209.61438,74.882032 209.8988,75.10957 210.12635,75.402109 C 210.362,75.686538 210.52453,76.052223 210.61393,76.499165 L 210.61393,76.59668 C 210.61392,76.726707 210.57328,76.864855 210.49203,77.011124 C 210.41888,77.149276 210.32137,77.287424 210.19948,77.425566 C 209.99631,77.644982 209.8216,77.78313 209.67534,77.840009 C 209.53717,77.896899 209.36653,77.92534 209.16337,77.925335 C 209.08211,77.92534 208.99678,77.92534 208.90739,77.925335 C 208.82612,77.917214 208.72861,77.913151 208.61485,77.913146 C 208.46856,77.913151 208.36292,77.876583 208.29792,77.803441 C 208.24104,77.722183 208.19633,77.616539 208.16384,77.486513 C 208.13944,77.356498 208.11913,77.214287 208.10289,77.059881 C 208.08663,76.897361 208.05006,76.734834 207.99318,76.572301 C 207.9363,76.401655 207.8469,76.243192 207.72501,76.096911 C 207.60311,75.942517 207.42839,75.812497 207.20087,75.706848 C 206.91644,75.576832 206.5792,75.511822 206.18914,75.511815 C 205.89658,75.511822 205.61217,75.552455 205.33588,75.63371 C 205.0677,75.706854 204.86455,75.824686 204.7264,75.987206 C 204.63701,76.084728 204.55574,76.214749 204.48261,76.377269 C 204.4176,76.539802 204.35665,76.714518 204.29977,76.901418 C 204.24288,77.088329 204.19412,77.279297 204.15349,77.474324 C 204.11286,77.669361 204.08036,77.844077 204.05598,77.998472 L 203.56839,81.582184 C 203.56026,81.647196 203.5237,81.724397 203.4587,81.813785 C 203.4018,81.895049 203.33679,81.976312 203.26366,82.057575 C 203.19052,82.138838 203.11333,82.207912 203.03206,82.264796 C 202.95892,82.321681 202.89798,82.350123 202.84922,82.350122 L 201.10612,82.350122 C 201.06549,82.350123 201.04517,82.321681 201.04517,82.264796 L 202.00814,75.243647 C 202.01627,75.178643 202.04877,75.101443 202.10566,75.012046 C 202.16254,74.922663 202.22755,74.8414 202.30068,74.768256 C 202.37382,74.687 202.44696,74.617926 202.5201,74.561034 C 202.60136,74.504159 202.66638,74.475716 202.71513,74.475708 L 202.72732,74.475708 M 216.55231,74.280676 C 217.14552,74.280684 217.67374,74.333506 218.13693,74.43914 C 218.60013,74.54479 218.99426,74.715443 219.31932,74.951099 C 219.64436,75.186769 219.89221,75.49557 220.06288,75.8775 C 220.23352,76.251317 220.31885,76.706393 220.31886,77.242723 C 220.31885,78.112246 220.1807,78.876119 219.90442,79.534349 C 219.63624,80.192584 219.25836,80.745175 218.77079,81.192121 C 218.29133,81.639069 217.71843,81.976312 217.05207,82.203849 C 216.38572,82.423259 215.66247,82.532965 214.88235,82.532965 C 214.28911,82.532965 213.75685,82.480144 213.28552,82.374501 C 212.82232,82.26886 212.4282,82.098207 212.10314,81.862542 C 211.77809,81.62688 211.53023,81.322143 211.35958,80.948331 C 211.18893,80.566395 211.1036,80.103195 211.1036,79.558728 C 211.1036,78.689214 211.23768,77.92534 211.50586,77.267103 C 211.78215,76.608876 212.16408,76.060349 212.65166,75.62152 C 213.13925,75.17458 213.71214,74.8414 214.37038,74.621982 C 215.03674,74.394453 215.75998,74.280684 216.54012,74.280676 L 216.55231,74.280676 M 216.84485,75.706848 C 216.56043,75.576832 216.22318,75.511822 215.83313,75.511815 C 215.54057,75.511822 215.25615,75.552455 214.97987,75.63371 C 214.70356,75.706854 214.49634,75.824686 214.35819,75.987206 C 214.28505,76.076601 214.20379,76.222876 214.11441,76.426027 C 214.02501,76.629192 213.93968,76.872982 213.85843,77.157397 C 213.78528,77.433698 213.72028,77.734371 213.66339,78.05942 C 213.61464,78.376352 213.59025,78.693278 213.59025,79.0102 C 213.59025,79.335258 213.6187,79.639995 213.67558,79.924413 C 213.7406,80.200711 213.8503,80.4445 214.0047,80.655783 C 214.15909,80.858942 214.36225,81.021469 214.61417,81.143362 C 214.87421,81.257132 215.1952,81.314016 215.57715,81.314015 C 215.86969,81.314016 216.15412,81.277448 216.43041,81.20431 C 216.7067,81.123048 216.91392,81.001154 217.05207,80.838625 C 217.12521,80.757364 217.20646,80.615152 217.29586,80.411993 C 217.38525,80.200711 217.46651,79.956921 217.53965,79.680623 C 217.61279,79.404331 217.67374,79.103657 217.7225,78.7786 C 217.77937,78.453551 217.80782,78.132562 217.80783,77.81563 C 217.80782,77.588098 217.79156,77.368687 217.75906,77.157397 C 217.72655,76.937992 217.66968,76.734834 217.58841,76.547923 C 217.51527,76.361023 217.41775,76.198497 217.29586,76.060343 C 217.17396,75.914076 217.02363,75.796243 216.84485,75.706848 M 225.34532,71.794018 C 225.64598,71.79403 225.86133,71.863103 225.99136,72.00124 C 226.12137,72.139399 226.18639,72.310052 226.18639,72.513199 C 226.18639,72.691988 226.14168,72.882957 226.05231,73.086106 C 225.96291,73.289274 225.83695,73.476178 225.67444,73.646823 C 225.52002,73.817484 225.33719,73.959695 225.12591,74.073454 C 224.91461,74.179106 224.69114,74.231926 224.45548,74.231918 C 224.17105,74.231926 223.95977,74.170979 223.82163,74.049075 C 223.6916,73.919064 223.62659,73.740284 223.6266,73.512738 C 223.62659,73.333968 223.66722,73.147062 223.74849,72.952021 C 223.83788,72.748873 223.95571,72.561967 224.10199,72.391304 C 224.25638,72.220662 224.43922,72.078451 224.65052,71.964672 C 224.86179,71.850914 225.09339,71.79403 225.34532,71.794018 M 219.51874,84.544231 C 220.00632,84.576735 220.42075,84.540167 220.76206,84.434526 C 221.09524,84.328883 221.37153,84.162292 221.59094,83.934757 C 221.81848,83.707218 221.99727,83.418734 222.12729,83.069303 C 222.25731,82.727996 222.35482,82.329807 222.41984,81.874732 L 223.32185,75.304594 C 223.40312,75.133949 223.48032,74.999864 223.55346,74.902341 C 223.62659,74.796706 223.69972,74.715443 223.77287,74.658551 C 223.84601,74.601674 223.92726,74.565106 224.01666,74.548845 C 224.10604,74.524474 224.20762,74.512284 224.3214,74.512277 C 224.44329,74.512284 224.58956,74.520411 224.76022,74.536655 C 224.93086,74.54479 225.13403,74.548854 225.36969,74.548845 C 225.4347,74.548854 225.49971,74.548854 225.56473,74.548845 C 225.63785,74.540727 225.71912,74.536663 225.80852,74.536655 C 225.83289,74.536663 225.84508,74.552917 225.84508,74.585413 L 225.84508,74.621982 L 224.94306,81.192121 C 224.83741,81.939744 224.63425,82.593912 224.33359,83.154629 C 224.0329,83.715345 223.64691,84.182608 223.17558,84.556422 C 222.70425,84.93023 222.15573,85.210588 221.53,85.397497 C 220.90428,85.584399 220.2176,85.677852 219.46997,85.677855 C 219.18556,85.677852 218.89301,85.661599 218.59234,85.629097 C 218.29166,85.604715 217.99912,85.551894 217.71469,85.470633 C 217.43027,85.389368 217.17022,85.279662 216.93456,85.141517 C 216.69077,85.003368 216.48762,84.828652 216.32508,84.617369 L 216.3129,84.629558 C 216.23977,84.548294 216.20319,84.446714 216.20319,84.324821 C 216.20319,84.219177 216.23163,84.109472 216.28852,83.995704 C 216.33728,83.890061 216.40229,83.788481 216.48354,83.690967 C 216.55669,83.593451 216.63389,83.504061 216.71516,83.422798 C 216.79641,83.341534 216.86549,83.280587 216.92237,83.239955 L 216.91018,83.252146 C 216.9752,83.211513 217.04427,83.174945 217.1174,83.14244 C 217.19055,83.11806 217.26368,83.105871 217.33682,83.105871 L 217.37338,83.105871 L 217.36119,83.118061 C 217.45871,83.11806 217.55623,83.11806 217.65375,83.118061 C 217.74313,83.11806 217.82846,83.126187 217.90972,83.14244 C 217.99098,83.158693 218.06412,83.191197 218.12914,83.239955 C 218.19414,83.288714 218.23884,83.36185 218.26322,83.459366 L 218.25103,83.471556 C 218.33229,83.690966 218.42168,83.877871 218.5192,84.032272 C 218.60859,84.194798 218.77924,84.337008 219.03115,84.458905 L 219.51874,84.544231 M 235.54945,75.828742 C 235.61444,75.966896 235.66727,76.109107 235.70791,76.255375 C 235.75666,76.401655 235.78104,76.543865 235.78105,76.682007 C 235.78104,76.990813 235.65102,77.263045 235.39099,77.498704 C 235.13093,77.726246 234.79368,77.929403 234.37925,78.108178 C 233.9648,78.286962 233.5016,78.441362 232.98965,78.571379 C 232.4858,78.701404 231.98604,78.819235 231.49034,78.924874 C 231.00276,79.030521 230.54768,79.123973 230.12513,79.205233 C 229.70255,79.2865 229.37343,79.371826 229.13777,79.461212 C 229.17027,79.8269 229.24341,80.131637 229.35718,80.375425 C 229.47908,80.61109 229.62535,80.802058 229.79601,80.948331 C 229.97478,81.08648 230.16981,81.183995 230.3811,81.240879 C 230.59238,81.297764 230.80772,81.326206 231.02714,81.326205 C 231.19778,81.326206 231.36438,81.314016 231.52692,81.289636 C 231.68943,81.257132 231.83977,81.216501 231.97792,81.167742 C 232.11606,81.118985 232.23389,81.066164 232.33141,81.009278 C 232.43705,80.952395 232.51426,80.895512 232.56302,80.838625 C 232.66053,80.732985 232.74586,80.578584 232.819,80.375425 C 232.90025,80.164142 232.99371,79.956921 233.09936,79.75376 C 233.20499,79.542479 233.33908,79.355572 233.50162,79.193043 C 233.66413,79.022394 233.87948,78.924877 234.14765,78.900495 L 234.17203,78.900495 C 234.2289,78.900498 234.29392,78.900498 234.36707,78.900495 C 234.44833,78.892373 234.53364,78.888309 234.62304,78.888306 C 234.71243,78.888309 234.80181,78.896436 234.89121,78.912685 C 234.98872,78.920815 235.07405,78.941131 235.1472,78.973632 C 235.22032,78.998015 235.27721,79.04271 235.31784,79.107717 C 235.36659,79.164604 235.39098,79.241805 235.39099,79.339316 C 235.39098,79.49372 235.33815,79.6725 235.23252,79.875655 C 235.12686,80.078815 234.99685,80.286037 234.84246,80.497319 C 234.68804,80.70048 234.52146,80.895512 234.34269,81.082415 C 234.1639,81.269321 234.00136,81.419659 233.8551,81.533426 C 233.41628,81.874733 232.87994,82.130712 232.2461,82.301365 C 231.61223,82.472018 230.96618,82.557344 230.30796,82.557344 C 229.73911,82.557344 229.22716,82.504523 228.77209,82.39888 C 228.31701,82.293238 227.92695,82.118522 227.6019,81.874732 C 227.28496,81.630944 227.04118,81.314016 226.87052,80.923952 C 226.69987,80.533889 226.61454,80.054436 226.61454,79.485591 C 226.61454,78.851741 226.72018,78.226014 226.93147,77.608409 C 227.15088,76.982687 227.48406,76.426033 227.931,75.938447 C 228.37795,75.450875 228.94273,75.056748 229.62535,74.756067 C 230.31608,74.447274 231.13684,74.292873 232.08763,74.292865 C 232.43705,74.292873 232.78648,74.321316 233.13592,74.378193 C 233.49347,74.426958 233.82665,74.512284 234.13547,74.634171 C 234.44425,74.756074 234.72055,74.918601 234.96435,75.121751 C 235.20813,75.31679 235.3991,75.56058 235.53726,75.853121 L 235.54945,75.828742 M 232.3436,75.731226 C 232.05918,75.601212 231.72194,75.536201 231.33188,75.536194 C 231.03932,75.536201 230.75491,75.576832 230.47861,75.658089 C 230.21044,75.731233 230.00728,75.849065 229.86914,76.011585 C 229.76349,76.133486 229.67005,76.29195 229.58878,76.486975 C 229.51564,76.682013 229.44657,76.893297 229.38156,77.120829 C 229.32468,77.340245 229.27591,77.563719 229.23529,77.791251 C 229.20277,78.018793 229.17433,78.226014 229.14996,78.412915 C 229.2881,78.380414 229.47908,78.339782 229.72287,78.291021 C 229.97478,78.23414 230.247,78.16913 230.53956,78.095989 C 230.8321,78.014729 231.12872,77.929403 231.4294,77.840009 C 231.73006,77.742498 232.00229,77.632793 232.2461,77.510893 C 232.48988,77.389003 232.68897,77.254918 232.84338,77.108639 C 232.99777,76.962371 233.07498,76.803908 233.07498,76.633249 C 233.07498,76.446349 232.99777,76.271633 232.84338,76.1091 C 232.68897,75.938455 232.52238,75.812497 232.3436,75.731226 M 236.48537,80.448561 C 236.41223,80.147889 236.37567,79.8269 236.37567,79.485591 C 236.37567,79.103657 236.42036,78.717657 236.50975,78.327589 C 236.59914,77.929403 236.7251,77.547467 236.88762,77.181776 C 237.05828,76.816097 237.26549,76.470728 237.50928,76.145669 C 237.75308,75.820622 238.02937,75.536201 238.33818,75.292404 C 238.76886,74.951106 239.30114,74.695127 239.93499,74.524466 C 240.56885,74.353822 241.21082,74.268496 241.86094,74.268487 C 242.35664,74.268496 242.8239,74.321316 243.26273,74.42695 C 243.70967,74.524474 244.09973,74.670748 244.43292,74.865772 C 244.76609,75.060811 245.0302,75.300538 245.22524,75.584952 C 245.42026,75.869381 245.51778,76.19037 245.51778,76.547923 C 245.51778,76.686076 245.47715,76.836412 245.39589,76.998934 C 245.32274,77.15334 245.22523,77.299613 245.10335,77.437755 C 244.98957,77.575908 244.85955,77.689677 244.71328,77.779062 C 244.567,77.868456 244.42479,77.913151 244.28665,77.913146 C 244.19725,77.913151 244.10786,77.917214 244.01847,77.925335 C 243.93721,77.92534 243.85595,77.92534 243.77469,77.925335 C 243.58778,77.92534 243.42525,77.900962 243.28711,77.852199 C 243.15708,77.795319 243.08394,77.673424 243.0677,77.486513 C 243.04331,77.177719 242.99456,76.901423 242.92142,76.657628 C 242.84828,76.413844 242.73451,76.206622 242.58012,76.035964 C 242.43384,75.865317 242.23881,75.735296 241.99502,75.645899 C 241.75935,75.556517 241.4668,75.511822 241.11737,75.511815 C 240.8492,75.511822 240.6176,75.532138 240.42258,75.572763 C 240.22754,75.613402 240.05688,75.678412 239.91062,75.767795 C 239.77247,75.857192 239.65464,75.975023 239.55712,76.12129 C 239.4596,76.267571 239.37021,76.442287 239.28896,76.645438 C 239.19144,76.913613 239.09798,77.258982 239.00859,77.681545 C 238.91921,78.104119 238.87451,78.538877 238.87451,78.985821 C 238.87451,79.310879 238.90296,79.615616 238.95984,79.900034 C 239.02484,80.176332 239.13048,80.420122 239.27677,80.631403 C 239.43116,80.84269 239.63838,81.009279 239.89843,81.131174 C 240.15847,81.253069 240.48758,81.314016 240.88577,81.314015 C 241.2027,81.314016 241.5115,81.261196 241.81219,81.155551 C 242.11285,81.049912 242.33632,80.858942 242.4826,80.582645 C 242.53948,80.477006 242.60042,80.334794 242.66545,80.156014 C 242.73045,79.977237 242.81577,79.798457 242.92142,79.619676 C 243.02706,79.432773 243.15708,79.270246 243.31148,79.132096 C 243.47401,78.993951 243.6731,78.916752 243.90878,78.900495 L 243.93316,78.900495 L 243.92097,78.900495 L 243.93316,78.900495 C 243.9819,78.900498 244.04284,78.900498 244.11599,78.900495 C 244.18913,78.892373 244.26632,78.888309 244.34759,78.888306 C 244.4451,78.888309 244.53856,78.896436 244.62796,78.912685 C 244.72546,78.920815 244.81079,78.941131 244.88393,78.973632 C 244.96518,79.006142 245.0302,79.054899 245.07897,79.119906 C 245.12772,79.176794 245.15209,79.253994 245.1521,79.351507 C 245.15209,79.50591 245.09926,79.684689 244.99364,79.887845 C 244.88799,80.091006 244.75797,80.294163 244.60357,80.497319 C 244.44916,80.70048 244.28258,80.895512 244.1038,81.082415 C 243.92501,81.269321 243.76249,81.419659 243.61623,81.533426 C 243.17739,81.874733 242.64105,82.130712 242.00721,82.301365 C 241.37336,82.472018 240.72731,82.557344 240.06909,82.557344 C 239.59775,82.557344 239.15893,82.520776 238.75261,82.447638 C 238.35443,82.366376 238.00093,82.244481 237.69213,82.081954 C 237.38332,81.911302 237.12328,81.695954 236.912,81.435911 C 236.70072,81.167743 236.55444,80.846753 236.47318,80.47294 L 236.48537,80.448561 M 250.84079,81.314015 C 250.98705,81.314016 251.1374,81.305891 251.2918,81.289636 C 251.45432,81.265259 251.60872,81.22869 251.755,81.179931 C 251.90127,81.131175 252.03128,81.066164 252.14506,80.984899 C 252.26695,80.895512 252.36447,80.789868 252.43761,80.667972 C 252.48636,80.578584 252.55138,80.485131 252.63265,80.387614 C 252.7139,80.290101 252.80329,80.200711 252.90081,80.119444 C 252.99831,80.030057 253.09991,79.960984 253.20556,79.912224 C 253.31118,79.855342 253.41276,79.8269 253.51029,79.826896 L 254.03444,79.826896 C 254.1807,79.8269 254.29041,79.867531 254.36355,79.948792 C 254.44481,80.021932 254.48543,80.12351 254.48544,80.253529 C 254.48543,80.440438 254.39604,80.667974 254.21728,80.936141 C 254.04662,81.196185 253.78251,81.444037 253.42496,81.679701 C 253.06739,81.915365 252.61638,82.118522 252.07193,82.289175 C 251.52746,82.451702 250.88547,82.532965 250.14598,82.532965 C 249.39024,82.532965 248.76857,82.459829 248.28099,82.313554 C 247.79341,82.16728 247.40742,81.96006 247.12299,81.69189 C 246.8467,81.423722 246.65572,81.102732 246.55008,80.72892 C 246.44444,80.355111 246.39162,79.940669 246.39162,79.485591 C 246.39162,78.949257 246.44038,78.380414 246.53789,77.779062 C 246.63541,77.169592 246.72886,76.535739 246.81826,75.8775 C 246.72886,75.877506 246.6476,75.88157 246.57447,75.889689 C 246.50945,75.889696 246.44444,75.889696 246.37943,75.889689 C 246.24129,75.889696 246.17221,75.857192 246.17221,75.792174 C 246.20471,75.499633 246.2616,75.284286 246.34287,75.14613 C 246.42412,74.999864 246.51758,74.894222 246.62322,74.829203 C 246.73699,74.764201 246.85889,74.711379 246.98891,74.67074 C 247.11892,74.62199 247.25707,74.548854 247.40335,74.451329 C 247.65527,74.272558 247.84216,74.073464 247.96406,73.854043 C 248.09409,73.626515 248.2038,73.398979 248.29318,73.171432 C 248.38257,72.935778 248.47602,72.704177 248.57354,72.476631 C 248.67105,72.249104 248.82139,72.045946 249.02456,71.867156 C 249.1627,71.737145 249.28053,71.676198 249.37805,71.684313 C 249.48368,71.684325 249.56901,71.684325 249.63403,71.684313 C 249.73967,71.684325 249.79248,71.708703 249.79249,71.75745 L 249.79249,71.78183 L 249.40243,74.658551 L 251.25523,74.658551 C 251.28773,74.658559 251.30398,74.678875 251.30399,74.719498 C 251.30398,74.906411 251.27554,75.073001 251.21866,75.219268 C 251.1699,75.365548 251.04394,75.528075 250.84079,75.706848 C 250.71076,75.820622 250.61324,75.877506 250.54824,75.8775 L 250.53604,75.8775 L 249.23177,75.8775 C 249.20739,76.080665 249.17083,76.324455 249.12206,76.60887 C 249.08143,76.893297 249.03674,77.189908 248.98798,77.498704 C 248.94735,77.799382 248.91077,78.095992 248.87828,78.388536 C 248.8539,78.681089 248.84171,78.937068 248.84171,79.156475 C 248.84171,79.855342 249.00017,80.391679 249.3171,80.765488 C 249.64215,81.131175 250.14192,81.314016 250.81641,81.314015 L 250.84079,81.314015"
     id="text2441"
     style="font-size:40px;font-style:normal;font-weight:normal;fill:#919191;fill-opacity:1;stroke:none;stroke-width:1px;stroke-linecap:butt;stroke-linejoin:miter;stroke-opacity:1;font-family:Bitstream Vera Sans"
     clip-path="url(#clipPath2386)"
     transform="matrix(2.0438472,0,0,2.0438472,-166.52496,-83.90193)" />
  <text
     xml:space="preserve"
     style="font-size:18px;font-style:normal;font-weight:normal;text-align:start;text-anchor:start;fill:#000000;fill-opacity:1;stroke:none;stroke-width:1px;stroke-linecap:butt;stroke-linejoin:miter;stroke-opacity:1;font-family:URW Chancery L"
     x="306.18881"
     y="79.207848"
     id="text3160"><tspan
       sodipodi:role="line"
       id="tspan3162"
       x="306.18881"
       y="79.207848" /></text>
</svg>
